<svg xmlns="http://www.w3.org/2000/svg" width="179" height="64" viewBox="0 0 179 64">
    <defs>
        <linearGradient id="oj0qkk9v6a" x1="-.013%" x2="99.977%" y1="50.292%" y2="50.292%">
            <stop offset="0%" stop-color="#E52320"/>
            <stop offset="100%" stop-color="#5F2161"/>
        </linearGradient>
        <linearGradient id="f43f5ev3bb" x1="49.658%" x2="49.658%" y1="100.075%" y2=".084%">
            <stop offset="0%" stop-color="#F7EB5E"/>
            <stop offset="100%" stop-color="#EB601C"/>
        </linearGradient>
        <linearGradient id="bokih4ycbc" x1="50.049%" x2="50.049%" y1="99.984%" y2=".07%">
            <stop offset="0%" stop-color="#FDC848"/>
            <stop offset="99.46%" stop-color="#F59C21"/>
        </linearGradient>
        <linearGradient id="v6ud2ko8td" x1="49.848%" x2="49.848%" y1="100.028%" y2=".193%">
            <stop offset="0%" stop-color="#F9F093"/>
            <stop offset="100%" stop-color="#FFD258"/>
        </linearGradient>
        <linearGradient id="34f91vt06e" x1="49.765%" x2="49.765%" y1="99.967%" y2=".018%">
            <stop offset=".224%" stop-color="#67962F"/>
            <stop offset="100%" stop-color="#F3E600"/>
        </linearGradient>
        <linearGradient id="78cocwctrf" x1="50.101%" x2="50.101%" y1="99.818%" y2="-.131%">
            <stop offset=".224%" stop-color="#CCD736"/>
            <stop offset="100%" stop-color="#F1E62E"/>
        </linearGradient>
        <linearGradient id="gpoxkqyr2g" x1="49.907%" x2="49.907%" y1="100.028%" y2=".193%">
            <stop offset=".224%" stop-color="#A1C337"/>
            <stop offset="100%" stop-color="#CAD633"/>
        </linearGradient>
        <linearGradient id="v9wq3f0suh" x1=".041%" x2="99.99%" y1="50.007%" y2="50.007%">
            <stop offset="0%" stop-color="#9C4355"/>
            <stop offset="100%" stop-color="#612160"/>
        </linearGradient>
        <linearGradient id="zmdpyk9ehi" x1="-.025%" x2="99.924%" y1="49.693%" y2="49.693%">
            <stop offset="0%" stop-color="#E5221F"/>
            <stop offset="100%" stop-color="#AD4050"/>
        </linearGradient>
        <linearGradient id="2r5nz94c6j" x1=".116%" x2="100.045%" y1="49.812%" y2="49.812%">
            <stop offset="0%" stop-color="#0768B1"/>
            <stop offset="13.62%" stop-color="#156BB3"/>
            <stop offset="30.42%" stop-color="#2E76B9"/>
            <stop offset="48.91%" stop-color="#4E89C3"/>
            <stop offset="68.6%" stop-color="#75A5CE"/>
            <stop offset="89.03%" stop-color="#A4CADB"/>
            <stop offset="100%" stop-color="#BFE2E2"/>
        </linearGradient>
        <linearGradient id="0o0c2tdyik" x1=".141%" x2="100.09%" y1="50.076%" y2="50.076%">
            <stop offset=".224%" stop-color="#5FA7CD"/>
            <stop offset="100%" stop-color="#BEE1E0"/>
        </linearGradient>
        <linearGradient id="lpyqj3vejl" x1="-.025%" x2="99.924%" y1="50.01%" y2="50.01%">
            <stop offset=".224%" stop-color="#0369B1"/>
            <stop offset="100%" stop-color="#56A3CB"/>
        </linearGradient>
    </defs>
    <g fill="none" fill-rule="evenodd">
        <g fill-rule="nonzero">
            <g>
                <g fill="#404040">
                    <path d="M6.357 26.926c0 3.633 1.792 5.593 1.792 5.593s-2.37 1.845-4.161 1.845c-2.37 0-3.352-4.267-3.352-5.996V10.032h5.779v16.894h-.058zM6.82 2.998c0 2.71-.809 3.171-3.294 3.171C.982 6.17.173 5.71.173 3 .173.518.983.172 3.525.172 6.01.173 6.82.519 6.82 2.998M75.072 26.926c0 3.633 1.734 5.593 1.734 5.593s-2.37 1.845-4.161 1.845c-2.37 0-3.352-4.267-3.352-5.996V10.032h5.78v16.894zm.462-23.928c0 2.71-.809 3.171-3.294 3.171-2.543 0-3.352-.46-3.352-3.17 0-2.48.81-2.826 3.352-2.826 2.485 0 3.294.346 3.294 2.825M25.544 15.914s.116-1.154-1.387-1.5c-1.04-.23-2.196-.346-3.12-.346-4.104 0-5.433 1.038-5.433 7.784 0 5.881 1.271 7.38 5.317 7.38 2.543 0 4.68-.807 4.68-2.248v-11.07h-.057zm-6.01 18.22c-6.53 0-9.94-2.71-9.94-12.282 0-9.629 3.583-12.57 11.385-12.57 2.485 0 5.548.347 7.975 1.039 2.543.692 2.312 2.767 2.312 2.767v18.739c0 9.225-5.144 11.243-12.657 11.243-1.791 0-4.045-.23-5.895-.692-2.427-.576-1.56-4.093-1.56-4.093l.289-1.269c2.196.692 4.854 1.153 7.108 1.153 4.393 0 6.935-1.21 6.935-5.535-1.213.75-3.236 1.5-5.952 1.5M64.9 3.69v23.294c0 2.248.52 3.863 1.792 5.535 0 0-4.45 3.632-6.126.692-.924-1.557-1.445-3.46-1.445-6.054V.115h2.37c3.64 0 3.41 3.575 3.41 3.575M93.277 27.906v-4.785c-1.33-.289-2.948-.404-4.682-.404-3.236 0-4.392.346-4.392 3.402 0 3.171.867 3.69 4.392 3.69 1.214 0 2.428-.173 3.526-.461 1.213-.23 1.156-1.442 1.156-1.442m5.548 2.422s0 2.076-2.428 2.767c-2.658.75-5.779 1.096-8.264 1.096-7.455 0-9.998-1.73-9.998-7.9 0-6.687 3.757-7.725 9.305-7.725 2.022 0 3.872.23 5.837.634 0-4.094-.983-5.132-5.895-5.132-1.387 0-2.774.116-4.046.346-3.352.635-3.698-1.787-3.698-1.787l-.463-2.133c1.272-.346 2.89-.635 4.566-.923 1.56-.23 3.236-.346 4.854-.346 6.993 0 10.23 2.134 10.23 9.168v11.935zM49.644 27.906v-4.785c-1.33-.289-2.948-.404-4.682-.404-3.236 0-4.392.346-4.392 3.402 0 3.171.867 3.69 4.392 3.69 1.214 0 2.428-.173 3.526-.461 1.213-.23 1.156-1.442 1.156-1.442m5.548 2.422s0 2.076-2.428 2.767c-2.658.75-5.779 1.096-8.264 1.096-7.455 0-9.998-1.73-9.998-7.9 0-6.687 3.756-7.725 9.304-7.725 2.023 0 3.873.23 5.838.634 0-4.094-.983-5.132-5.895-5.132-1.387 0-2.774.116-4.046.346-3.352.635-3.698-1.787-3.698-1.787l-.463-2.133c1.272-.346 2.89-.635 4.566-.923 1.56-.23 3.236-.346 4.854-.346 6.993 0 10.23 2.134 10.23 9.168v11.935z" transform="translate(-423 -352) translate(423 352) translate(79.175 14.991)"/>
                </g>
                <g>
                    <g fill="url(#oj0qkk9v6a)" transform="translate(-423 -352) translate(423 352) translate(9.247 49.009)">
                        <path d="M40.57 9.225c1.734-1.153 3.294-2.537 4.624-3.863 0 0-12.715-4.843-22.424-5.189C14.275-.115.347 5.363.347 5.363c.347.345.751.806 1.156 1.152l.057.058.116.115c.058.058.116.116.173.116 4.508 4.497 9.767 5.823 11.154 6.284 5.144 1.672 9.652 1.615 12.368 1.442 5.952-.462 11.096-2.537 15.2-5.305"/>
                    </g>
                    <g fill="url(#f43f5ev3bb)" transform="translate(-423 -352) translate(423 352) translate(49.123 9.225)">
                        <path d="M9.131 5.074C7.975 3.344 6.646 1.787 5.375.46c0 0-4.913 12.685-5.26 22.371-.288 8.476 5.26 22.314 5.26 22.314.346-.346.751-.692 1.098-1.096l.058-.057.115-.116c.058-.057.116-.115.116-.172 4.507-4.498 5.837-9.745 6.299-11.128 1.676-5.132 1.618-9.63 1.445-12.34-.578-5.88-2.659-11.07-5.375-15.163"/>
                    </g>
                    <g fill="url(#bokih4ycbc)" transform="translate(-423 -352) translate(423 352) translate(41.032 9.225)">
                        <path d="M13.408.519C10.576 3.344 6.53 7.323 3.236 10.55L.231 13.55c2.312 2.306 5.26 5.592 7.918 9.282C13.87 14.991 18.494 5.535 13.408.52c0 0 0-.058 0 0"/>
                    </g>
                    <g fill="url(#v6ud2ko8td)" transform="translate(-423 -352) translate(423 352) translate(41.032 31.712)">
                        <path d="M13.35 22.717s0 .058 0 0c5.086-5.016.52-14.53-5.201-22.371C5.49 4.036 2.543 7.323.23 9.629l3.005 2.998c3.237 3.287 7.282 7.265 10.114 10.09"/>
                    </g>
                    <g fill="url(#34f91vt06e)" transform="translate(-423 -352) translate(423 352) translate(0 9.225)">
                        <path d="M5.837 5.074C3.121 9.168 1.04 14.357.52 20.295c-.231 2.71-.231 7.208 1.445 12.34.462 1.325 1.791 6.63 6.3 11.127.057.058.115.115.115.173l.115.115s0 .058.058.058c.347.404.752.75 1.098 1.096 0 0 5.548-13.838 5.26-22.314C14.563 13.204 9.65.52 9.65.52 8.322 1.845 6.993 3.344 5.837 5.074"/>
                    </g>
                    <g fill="url(#78cocwctrf)" transform="translate(-423 -352) translate(423 352) translate(6.935 9.225)">
                        <path d="M2.716.519c-5.085 5.016-.52 14.53 5.202 22.371 2.658-3.69 5.605-6.976 7.917-9.283L12.83 10.61 2.716.519"/>
                    </g>
                    <g fill="url(#gpoxkqyr2g)" transform="translate(-423 -352) translate(423 352) translate(6.935 31.712)">
                        <path d="M2.716 22.717c2.832-2.825 6.878-6.803 10.172-10.09l3.005-2.998C13.58 7.323 10.633 4.036 7.975.346 2.196 8.245-2.369 17.7 2.716 22.717c0 .058 0 0 0 0"/>
                    </g>
                    <g fill="url(#v9wq3f0suh)" transform="translate(-423 -352) translate(423 352) translate(31.786 40.937)">
                        <path d="M22.655 13.492c-2.832-2.825-6.82-6.861-10.114-10.148L9.536.346C7.224 2.652 3.93 5.593.23 8.245c7.86 5.708 17.396 10.263 22.424 5.247"/>
                    </g>
                    <g fill="url(#zmdpyk9ehi)" transform="translate(-423 -352) translate(423 352) translate(9.247 40.937)">
                        <path d="M.347 13.492c5.028 5.074 14.563.519 22.423-5.19C19.071 5.65 15.777 2.71 13.466.405L10.46 3.402C7.166 6.63 3.18 10.609.347 13.492"/>
                    </g>
                    <g fill="url(#2r5nz94c6j)" transform="translate(-423 -352) translate(423 352) translate(9.247)">
                        <path d="M40.57 5.939c-4.103-2.71-9.304-4.786-15.257-5.305-2.716-.23-7.224-.23-12.368 1.442-1.329.46-6.646 1.787-11.153 6.284-.058.058-.116.116-.174.116l-.115.115s-.058 0-.058.058c-.405.346-.81.807-1.156 1.153 0 0 13.928 5.477 22.423 5.189 9.71-.346 22.482-5.247 22.482-5.247-1.272-1.326-2.832-2.652-4.624-3.805"/>
                    </g>
                    <g fill="url(#0o0c2tdyik)" transform="translate(-423 -352) translate(423 352) translate(31.786 7.495)">
                        <path d="M22.655 2.249C17.627-2.825 8.09 1.729.23 7.438c3.699 2.652 6.993 5.593 9.305 7.899l3.005-2.998 10.114-10.09"/>
                    </g>
                    <g fill="url(#lpyqj3vejl)" transform="translate(-423 -352) translate(423 352) translate(9.247 7.495)">
                        <path d="M.347 2.249c2.832 2.825 6.82 6.86 10.113 10.147l3.006 2.999c2.311-2.307 5.605-5.247 9.304-7.9C14.91 1.787 5.375-2.768.347 2.25"/>
                    </g>
                </g>
            </g>
        </g>
    </g>
</svg>
